<svg width="100" height="100" viewBox="0 0 100 100" xmlns="http://www.w3.org/2000/svg" fill="none">
  <defs>
    <linearGradient id="quillGradient" x1="0%" y1="0%" x2="100%" y2="100%">
      <stop offset="0%" style="stop-color:#4A0E8A;stop-opacity:1" />
      <stop offset="100%" style="stop-color:#7E22CE;stop-opacity:1" />
    </linearGradient>
    <linearGradient id="shadowGradient" x1="0%" y1="0%" x2="100%" y2="100%">
      <stop offset="0%" style="stop-color:#1F2937;stop-opacity:0.8" />
      <stop offset="100%" style="stop-color:#4B5563;stop-opacity:0.6" />
    </linearGradient>
    <filter id="dropShadow" x="-20%" y="-20%" width="140%" height="140%">
      <feGaussianBlur in="SourceAlpha" stdDeviation="3"/>
      <feOffset dx="2" dy="2" result="offsetblur"/>
      <feComponentTransfer>
        <feFuncA type="linear" slope="0.5"/>
      </feComponentTransfer>
      <feMerge>
        <feMergeNode/>
        <feMergeNode in="SourceGraphic"/>
      </feMerge>
    </filter>
  </defs>

  <!-- Shadow Layer -->
  <path d="M30 85 Q40 70 50 50 Q60 70 70 85 L50 95 Z" fill="url(#shadowGradient)" transform="translate(5, 5)" opacity="0.7"/>

  <!-- Quill Shape -->
  <g filter="url(#dropShadow)">
    <path d="M30 85 Q40 70 50 50 Q60 70 70 85 L50 95 Z" fill="url(#quillGradient)" stroke="#D1D5DB" stroke-width="1.5"/>
    <!-- Quill Nib Detail -->
    <path d="M48 52 L50 50 L52 52" stroke="#F9FAFB" stroke-width="2" stroke-linecap="round"/>
    <!-- Feather Barbs -->
    <line x1="50" y1="50" x2="35" y2="65" stroke="url(#quillGradient)" stroke-width="1.5"/>
    <line x1="50" y1="50" x2="65" y2="65" stroke="url(#quillGradient)" stroke-width="1.5"/>
    <line x1="50" y1="60" x2="38" y2="72" stroke="url(#quillGradient)" stroke-width="1.5"/>
    <line x1="50" y1="60" x2="62" y2="72" stroke="url(#quillGradient)" stroke-width="1.5"/>
    <line x1="50" y1="70" x2="42" y2="80" stroke="url(#quillGradient)" stroke-width="1.5"/>
    <line x1="50" y1="70" x2="58" y2="80" stroke="url(#quillGradient)" stroke-width="1.5"/>
  </g>
</svg>